<svg xmlns="http://www.w3.org/2000/svg" width="600" height="400"><path d="M283,215L344,289L332,209Z" fill="rgb(230,232,241)" stroke="rgb(230,232,241)" stroke-width="1.51"/><path d="M283,215L268,285L344,289Z" fill="rgb(224,226,238)" stroke="rgb(224,226,238)" stroke-width="1.51"/><path d="M268,285L320,354L344,289Z" fill="rgb(199,204,224)" stroke="rgb(199,204,224)" stroke-width="1.51"/><path d="M344,289L409,221L332,209Z" fill="rgb(216,219,234)" stroke="rgb(216,219,234)" stroke-width="1.51"/><path d="M439,267L409,221L344,289Z" fill="rgb(195,200,222)" stroke="rgb(195,200,222)" stroke-width="1.51"/><path d="M320,354L386,339L344,289Z" fill="rgb(178,184,213)" stroke="rgb(178,184,213)" stroke-width="1.51"/><path d="M268,285L256,351L320,354Z" fill="rgb(187,194,220)" stroke="rgb(187,194,220)" stroke-width="1.51"/><path d="M283,215L205,196L268,285Z" fill="rgb(225,230,242)" stroke="rgb(225,230,242)" stroke-width="1.51"/><path d="M268,285L192,342L256,351Z" fill="rgb(176,187,217)" stroke="rgb(176,187,217)" stroke-width="1.51"/><path d="M243,100L205,196L283,215Z" fill="rgb(224,233,247)" stroke="rgb(224,233,247)" stroke-width="1.51"/><path d="M386,339L439,267L344,289Z" fill="rgb(179,185,214)" stroke="rgb(179,185,214)" stroke-width="1.51"/><path d="M205,196L184,294L268,285Z" fill="rgb(202,212,233)" stroke="rgb(202,212,233)" stroke-width="1.51"/><path d="M184,294L192,342L268,285Z" fill="rgb(177,191,220)" stroke="rgb(177,191,220)" stroke-width="1.51"/><path d="M332,209L349,100L283,215Z" fill="rgb(236,241,249)" stroke="rgb(236,241,249)" stroke-width="1.51"/><path d="M390,97L349,100L332,209Z" fill="rgb(206,218,237)" stroke="rgb(206,218,237)" stroke-width="1.51"/><path d="M390,97L332,209L409,221Z" fill="rgb(219,224,238)" stroke="rgb(219,224,238)" stroke-width="1.51"/><path d="M439,267L471,251L409,221Z" fill="rgb(188,194,219)" stroke="rgb(188,194,219)" stroke-width="1.51"/><path d="M463,344L471,251L439,267Z" fill="rgb(163,171,205)" stroke="rgb(163,171,205)" stroke-width="1.51"/><path d="M349,100L243,100L283,215Z" fill="rgb(224,234,247)" stroke="rgb(224,234,247)" stroke-width="1.51"/><path d="M336,46L239,67L243,100Z" fill="rgb(186,209,237)" stroke="rgb(186,209,237)" stroke-width="1.51"/><path d="M487,183L390,97L409,221Z" fill="rgb(198,207,228)" stroke="rgb(198,207,228)" stroke-width="1.51"/><path d="M243,100L184,134L205,196Z" fill="rgb(201,219,241)" stroke="rgb(201,219,241)" stroke-width="1.51"/><path d="M205,196L125,268L184,294Z" fill="rgb(189,205,231)" stroke="rgb(189,205,231)" stroke-width="1.51"/><path d="M386,339L463,344L439,267Z" fill="rgb(159,166,202)" stroke="rgb(159,166,202)" stroke-width="1.51"/><path d="M422,404L463,344L386,339Z" fill="rgb(138,149,191)" stroke="rgb(138,149,191)" stroke-width="1.51"/><path d="M363,437L422,404L386,339Z" fill="rgb(134,146,189)" stroke="rgb(134,146,189)" stroke-width="1.51"/><path d="M363,437L386,339L320,354Z" fill="rgb(153,161,199)" stroke="rgb(153,161,199)" stroke-width="1.51"/><path d="M268,438L320,354L256,351Z" fill="rgb(162,172,207)" stroke="rgb(162,172,207)" stroke-width="1.51"/><path d="M471,251L487,183L409,221Z" fill="rgb(196,201,223)" stroke="rgb(196,201,223)" stroke-width="1.51"/><path d="M515,127L487,183L571,142Z" fill="rgb(160,174,210)" stroke="rgb(160,174,210)" stroke-width="1.51"/><path d="M184,294L106,331L192,342Z" fill="rgb(152,173,212)" stroke="rgb(152,173,212)" stroke-width="1.51"/><path d="M102,176L125,268L205,196Z" fill="rgb(200,217,239)" stroke="rgb(200,217,239)" stroke-width="1.51"/><path d="M162,417L268,438L256,351Z" fill="rgb(137,154,197)" stroke="rgb(137,154,197)" stroke-width="1.51"/><path d="M162,417L256,351L192,342Z" fill="rgb(144,162,203)" stroke="rgb(144,162,203)" stroke-width="1.51"/><path d="M268,438L363,437L320,354Z" fill="rgb(154,163,200)" stroke="rgb(154,163,200)" stroke-width="1.51"/><path d="M336,46L243,100L349,100Z" fill="rgb(197,215,239)" stroke="rgb(197,215,239)" stroke-width="1.51"/><path d="M243,100L179,66L184,134Z" fill="rgb(177,203,235)" stroke="rgb(177,203,235)" stroke-width="1.51"/><path d="M390,97L336,46L349,100Z" fill="rgb(181,201,230)" stroke="rgb(181,201,230)" stroke-width="1.51"/><path d="M415,29L336,46L390,97Z" fill="rgb(162,187,223)" stroke="rgb(162,187,223)" stroke-width="1.51"/><path d="M582,227L487,183L471,251Z" fill="rgb(177,184,212)" stroke="rgb(177,184,212)" stroke-width="1.51"/><path d="M422,404L462,403L463,344Z" fill="rgb(120,134,181)" stroke="rgb(120,134,181)" stroke-width="1.51"/><path d="M487,480L462,403L422,404Z" fill="rgb(109,125,176)" stroke="rgb(109,125,176)" stroke-width="1.51"/><path d="M125,268L106,331L184,294Z" fill="rgb(158,179,216)" stroke="rgb(158,179,216)" stroke-width="1.51"/><path d="M106,331L162,417L192,342Z" fill="rgb(130,155,201)" stroke="rgb(130,155,201)" stroke-width="1.51"/><path d="M179,66L120,140L184,134Z" fill="rgb(170,199,233)" stroke="rgb(170,199,233)" stroke-width="1.51"/><path d="M184,134L120,140L205,196Z" fill="rgb(194,214,239)" stroke="rgb(194,214,239)" stroke-width="1.51"/><path d="M125,268L65,274L106,331Z" fill="rgb(148,174,215)" stroke="rgb(148,174,215)" stroke-width="1.51"/><path d="M120,140L102,176L205,196Z" fill="rgb(192,213,239)" stroke="rgb(192,213,239)" stroke-width="1.51"/><path d="M268,438L318,493L363,437Z" fill="rgb(154,163,200)" stroke="rgb(154,163,200)" stroke-width="1.51"/><path d="M363,437L407,500L422,404Z" fill="rgb(129,141,186)" stroke="rgb(129,141,186)" stroke-width="1.51"/><path d="M162,417L269,478L268,438Z" fill="rgb(138,155,197)" stroke="rgb(138,155,197)" stroke-width="1.51"/><path d="M213,-22L179,66L239,67Z" fill="rgb(148,187,227)" stroke="rgb(148,187,227)" stroke-width="1.51"/><path d="M239,67L179,66L243,100Z" fill="rgb(172,201,233)" stroke="rgb(172,201,233)" stroke-width="1.51"/><path d="M487,183L515,127L390,97Z" fill="rgb(173,187,218)" stroke="rgb(173,187,218)" stroke-width="1.51"/><path d="M590,282L471,251L463,344Z" fill="rgb(145,155,195)" stroke="rgb(145,155,195)" stroke-width="1.51"/><path d="M269,478L318,493L268,438Z" fill="rgb(155,165,202)" stroke="rgb(155,165,202)" stroke-width="1.51"/><path d="M336,46L261,1L239,67Z" fill="rgb(172,200,233)" stroke="rgb(172,200,233)" stroke-width="1.51"/><path d="M476,68L415,29L390,97Z" fill="rgb(150,177,216)" stroke="rgb(150,177,216)" stroke-width="1.51"/><path d="M515,127L476,68L390,97Z" fill="rgb(155,177,214)" stroke="rgb(155,177,214)" stroke-width="1.51"/><path d="M106,331L116,448L162,417Z" fill="rgb(104,136,189)" stroke="rgb(104,136,189)" stroke-width="1.51"/><path d="M102,176L65,274L125,268Z" fill="rgb(172,196,228)" stroke="rgb(172,196,228)" stroke-width="1.51"/><path d="M312,-38L261,1L336,46Z" fill="rgb(160,194,230)" stroke="rgb(160,194,230)" stroke-width="1.51"/><path d="M318,493L407,500L363,437Z" fill="rgb(140,151,192)" stroke="rgb(140,151,192)" stroke-width="1.51"/><path d="M462,403L553,369L463,344Z" fill="rgb(111,127,177)" stroke="rgb(111,127,177)" stroke-width="1.51"/><path d="M552,478L553,369L462,403Z" fill="rgb(87,109,165)" stroke="rgb(87,109,165)" stroke-width="1.51"/><path d="M590,282L582,227L471,251Z" fill="rgb(151,160,198)" stroke="rgb(151,160,198)" stroke-width="1.51"/><path d="M515,127L550,52L476,68Z" fill="rgb(131,158,203)" stroke="rgb(131,158,203)" stroke-width="1.51"/><path d="M415,29L423,1L336,46Z" fill="rgb(143,175,217)" stroke="rgb(143,175,217)" stroke-width="1.51"/><path d="M487,-4L423,1L415,29Z" fill="rgb(116,156,206)" stroke="rgb(116,156,206)" stroke-width="1.51"/><path d="M162,417L160,512L269,478Z" fill="rgb(127,148,194)" stroke="rgb(127,148,194)" stroke-width="1.51"/><path d="M269,478L160,512L318,493Z" fill="rgb(143,158,199)" stroke="rgb(143,158,199)" stroke-width="1.51"/><path d="M10,399L116,448L106,331Z" fill="rgb(88,129,186)" stroke="rgb(88,129,186)" stroke-width="1.51"/><path d="M553,369L590,282L463,344Z" fill="rgb(117,132,180)" stroke="rgb(117,132,180)" stroke-width="1.51"/><path d="M116,448L139,472L162,417Z" fill="rgb(107,137,189)" stroke="rgb(107,137,189)" stroke-width="1.51"/><path d="M476,68L487,-4L415,29Z" fill="rgb(123,158,206)" stroke="rgb(123,158,206)" stroke-width="1.51"/><path d="M582,227L571,142L487,183Z" fill="rgb(169,178,210)" stroke="rgb(169,178,210)" stroke-width="1.51"/><path d="M648,192L571,142L582,227Z" fill="rgb(153,164,202)" stroke="rgb(153,164,202)" stroke-width="1.51"/><path d="M179,66L95,71L120,140Z" fill="rgb(150,187,228)" stroke="rgb(150,187,228)" stroke-width="1.51"/><path d="M37,125L28,185L102,176Z" fill="rgb(160,193,230)" stroke="rgb(160,193,230)" stroke-width="1.51"/><path d="M102,176L28,185L65,274Z" fill="rgb(175,201,232)" stroke="rgb(175,201,232)" stroke-width="1.51"/><path d="M87,-51L95,71L179,66Z" fill="rgb(111,167,219)" stroke="rgb(111,167,219)" stroke-width="1.51"/><path d="M407,500L487,480L422,404Z" fill="rgb(115,130,179)" stroke="rgb(115,130,179)" stroke-width="1.51"/><path d="M261,1L213,-22L239,67Z" fill="rgb(146,186,227)" stroke="rgb(146,186,227)" stroke-width="1.51"/><path d="M423,1L312,-38L336,46Z" fill="rgb(142,178,220)" stroke="rgb(142,178,220)" stroke-width="1.51"/><path d="M277,-107L213,-22L261,1Z" fill="rgb(143,184,226)" stroke="rgb(143,184,226)" stroke-width="1.51"/><path d="M37,125L102,176L120,140Z" fill="rgb(162,195,231)" stroke="rgb(162,195,231)" stroke-width="1.51"/><path d="M65,274L12,360L106,331Z" fill="rgb(120,155,203)" stroke="rgb(120,155,203)" stroke-width="1.51"/><path d="M63,474L160,512L139,472Z" fill="rgb(100,134,188)" stroke="rgb(100,134,188)" stroke-width="1.51"/><path d="M139,472L160,512L162,417Z" fill="rgb(112,140,191)" stroke="rgb(112,140,191)" stroke-width="1.51"/><path d="M318,493L160,512L407,500Z" fill="rgb(158,167,203)" stroke="rgb(158,167,203)" stroke-width="1.51"/><path d="M95,71L37,125L120,140Z" fill="rgb(144,184,226)" stroke="rgb(144,184,226)" stroke-width="1.51"/><path d="M423,1L344,-81L312,-38Z" fill="rgb(140,176,219)" stroke="rgb(140,176,219)" stroke-width="1.51"/><path d="M550,52L487,-4L476,68Z" fill="rgb(111,148,199)" stroke="rgb(111,148,199)" stroke-width="1.51"/><path d="M571,142L550,52L515,127Z" fill="rgb(132,157,201)" stroke="rgb(132,157,201)" stroke-width="1.51"/><path d="M-20,286L12,360L65,274Z" fill="rgb(112,152,204)" stroke="rgb(112,152,204)" stroke-width="1.51"/><path d="M116,448L63,474L139,472Z" fill="rgb(95,131,187)" stroke="rgb(95,131,187)" stroke-width="1.51"/><path d="M638,365L640,283L590,282Z" fill="rgb(107,123,175)" stroke="rgb(107,123,175)" stroke-width="1.51"/><path d="M487,480L552,478L462,403Z" fill="rgb(95,114,169)" stroke="rgb(95,114,169)" stroke-width="1.51"/><path d="M407,500L552,478L487,480Z" fill="rgb(101,119,172)" stroke="rgb(101,119,172)" stroke-width="1.51"/><path d="M590,282L640,283L582,227Z" fill="rgb(129,141,187)" stroke="rgb(129,141,187)" stroke-width="1.51"/><path d="M571,142L622,66L550,52Z" fill="rgb(110,141,192)" stroke="rgb(110,141,192)" stroke-width="1.51"/><path d="M638,365L590,282L553,369Z" fill="rgb(95,114,168)" stroke="rgb(95,114,168)" stroke-width="1.51"/><path d="M10,399L63,474L116,448Z" fill="rgb(78,124,183)" stroke="rgb(78,124,183)" stroke-width="1.51"/><path d="M552,478L581,451L553,369Z" fill="rgb(74,98,158)" stroke="rgb(74,98,158)" stroke-width="1.51"/><path d="M-42,213L-20,286L28,185Z" fill="rgb(146,182,222)" stroke="rgb(146,182,222)" stroke-width="1.51"/><path d="M28,185L-20,286L65,274Z" fill="rgb(144,178,219)" stroke="rgb(144,178,219)" stroke-width="1.51"/><path d="M277,-107L190,-86L213,-22Z" fill="rgb(134,179,224)" stroke="rgb(134,179,224)" stroke-width="1.51"/><path d="M436,-84L344,-81L423,1Z" fill="rgb(126,165,212)" stroke="rgb(126,165,212)" stroke-width="1.51"/><path d="M-34,360L10,399L12,360Z" fill="rgb(66,123,185)" stroke="rgb(66,123,185)" stroke-width="1.51"/><path d="M12,360L10,399L106,331Z" fill="rgb(90,134,191)" stroke="rgb(90,134,191)" stroke-width="1.51"/><path d="M640,283L648,192L582,227Z" fill="rgb(143,154,194)" stroke="rgb(143,154,194)" stroke-width="1.51"/><path d="M648,192L635,139L571,142Z" fill="rgb(140,156,198)" stroke="rgb(140,156,198)" stroke-width="1.51"/><path d="M617,419L638,365L553,369Z" fill="rgb(68,95,156)" stroke="rgb(68,95,156)" stroke-width="1.51"/><path d="M640,283L691,250L648,192Z" fill="rgb(140,151,192)" stroke="rgb(140,151,192)" stroke-width="1.51"/><path d="M581,451L617,419L553,369Z" fill="rgb(66,93,155)" stroke="rgb(66,93,155)" stroke-width="1.51"/><path d="M622,478L617,419L581,451Z" fill="rgb(59,89,152)" stroke="rgb(59,89,152)" stroke-width="1.51"/><path d="M95,71L39,27L37,125Z" fill="rgb(113,167,219)" stroke="rgb(113,167,219)" stroke-width="1.51"/><path d="M-25,137L-42,213L28,185Z" fill="rgb(149,187,227)" stroke="rgb(149,187,227)" stroke-width="1.51"/><path d="M87,-51L39,27L95,71Z" fill="rgb(83,154,213)" stroke="rgb(83,154,213)" stroke-width="1.51"/><path d="M87,-51L179,66L213,-22Z" fill="rgb(109,166,218)" stroke="rgb(109,166,218)" stroke-width="1.51"/><path d="M-25,137L28,185L37,125Z" fill="rgb(138,181,224)" stroke="rgb(138,181,224)" stroke-width="1.51"/><path d="M-20,286L-34,360L12,360Z" fill="rgb(89,138,195)" stroke="rgb(89,138,195)" stroke-width="1.51"/><path d="M-62,71L-25,137L37,125Z" fill="rgb(112,167,219)" stroke="rgb(112,167,219)" stroke-width="1.51"/><path d="M487,-4L436,-84L423,1Z" fill="rgb(109,152,204)" stroke="rgb(109,152,204)" stroke-width="1.51"/><path d="M490,-78L436,-84L487,-4Z" fill="rgb(101,146,200)" stroke="rgb(101,146,200)" stroke-width="1.51"/><path d="M490,-78L487,-4L590,-29Z" fill="rgb(81,133,191)" stroke="rgb(81,133,191)" stroke-width="1.51"/><path d="M277,-107L261,1L312,-38Z" fill="rgb(154,190,228)" stroke="rgb(154,190,228)" stroke-width="1.51"/><path d="M277,-107L312,-38L344,-81Z" fill="rgb(156,190,228)" stroke="rgb(156,190,228)" stroke-width="1.51"/><path d="M635,139L622,66L571,142Z" fill="rgb(119,144,192)" stroke="rgb(119,144,192)" stroke-width="1.51"/><path d="M719,126L622,66L635,139Z" fill="rgb(116,142,192)" stroke="rgb(116,142,192)" stroke-width="1.51"/><path d="M436,-84L277,-107L344,-81Z" fill="rgb(142,179,221)" stroke="rgb(142,179,221)" stroke-width="1.51"/><path d="M-98,299L-34,360L-20,286Z" fill="rgb(100,145,200)" stroke="rgb(100,145,200)" stroke-width="1.51"/><path d="M10,399L-27,501L63,474Z" fill="rgb(55,115,179)" stroke="rgb(55,115,179)" stroke-width="1.51"/><path d="M-34,360L-23,407L10,399Z" fill="rgb(55,116,181)" stroke="rgb(55,116,181)" stroke-width="1.51"/><path d="M436,-84L548,-108L277,-107Z" fill="rgb(119,160,209)" stroke="rgb(119,160,209)" stroke-width="1.51"/><path d="M590,-29L487,-4L550,52Z" fill="rgb(78,129,189)" stroke="rgb(78,129,189)" stroke-width="1.51"/><path d="M190,-86L87,-51L213,-22Z" fill="rgb(111,167,218)" stroke="rgb(111,167,218)" stroke-width="1.51"/><path d="M648,192L691,175L635,139Z" fill="rgb(145,159,199)" stroke="rgb(145,159,199)" stroke-width="1.51"/><path d="M709,374L691,250L640,283Z" fill="rgb(110,126,177)" stroke="rgb(110,126,177)" stroke-width="1.51"/><path d="M709,374L640,283L638,365Z" fill="rgb(92,112,167)" stroke="rgb(92,112,167)" stroke-width="1.51"/><path d="M719,405L709,374L638,365Z" fill="rgb(70,96,156)" stroke="rgb(70,96,156)" stroke-width="1.51"/><path d="M552,478L622,478L581,451Z" fill="rgb(65,92,154)" stroke="rgb(65,92,154)" stroke-width="1.51"/><path d="M693,512L622,478L552,478Z" fill="rgb(59,89,152)" stroke="rgb(59,89,152)" stroke-width="1.51"/><path d="M691,250L691,175L648,192Z" fill="rgb(157,165,202)" stroke="rgb(157,165,202)" stroke-width="1.51"/><path d="M87,-51L11,-3L39,27Z" fill="rgb(54,144,208)" stroke="rgb(54,144,208)" stroke-width="1.51"/><path d="M39,27L-62,71L37,125Z" fill="rgb(91,158,214)" stroke="rgb(91,158,214)" stroke-width="1.51"/><path d="M622,66L590,-29L550,52Z" fill="rgb(75,124,184)" stroke="rgb(75,124,184)" stroke-width="1.51"/><path d="M663,-23L590,-29L622,66Z" fill="rgb(50,114,178)" stroke="rgb(50,114,178)" stroke-width="1.51"/><path d="M-42,-85L-58,-5L11,-3Z" fill="rgb(0,136,204)" stroke="rgb(0,136,204)" stroke-width="1.51"/><path d="M190,-86L119,-97L87,-51Z" fill="rgb(99,161,216)" stroke="rgb(99,161,216)" stroke-width="1.51"/><path d="M277,-107L119,-97L190,-86Z" fill="rgb(123,173,221)" stroke="rgb(123,173,221)" stroke-width="1.51"/><path d="M-34,360L-92,436L-23,407Z" fill="rgb(46,112,178)" stroke="rgb(46,112,178)" stroke-width="1.51"/><path d="M-42,213L-98,299L-20,286Z" fill="rgb(127,166,213)" stroke="rgb(127,166,213)" stroke-width="1.51"/><path d="M-99,182L-98,299L-42,213Z" fill="rgb(144,180,222)" stroke="rgb(144,180,222)" stroke-width="1.51"/><path d="M-99,182L-42,213L-25,137Z" fill="rgb(148,187,227)" stroke="rgb(148,187,227)" stroke-width="1.51"/><path d="M719,405L638,365L617,419Z" fill="rgb(61,90,153)" stroke="rgb(61,90,153)" stroke-width="1.51"/><path d="M691,250L719,126L691,175Z" fill="rgb(152,163,201)" stroke="rgb(152,163,201)" stroke-width="1.51"/><path d="M11,-3L-62,71L39,27Z" fill="rgb(56,145,208)" stroke="rgb(56,145,208)" stroke-width="1.51"/><path d="M-98,134L-99,182L-25,137Z" fill="rgb(134,179,224)" stroke="rgb(134,179,224)" stroke-width="1.51"/><path d="M63,474L-27,501L160,512Z" fill="rgb(79,124,183)" stroke="rgb(79,124,183)" stroke-width="1.51"/><path d="M-23,407L-27,501L10,399Z" fill="rgb(46,112,178)" stroke="rgb(46,112,178)" stroke-width="1.51"/><path d="M-92,436L-27,501L-23,407Z" fill="rgb(46,112,178)" stroke="rgb(46,112,178)" stroke-width="1.51"/><path d="M709,374L719,126L691,250Z" fill="rgb(136,147,190)" stroke="rgb(136,147,190)" stroke-width="1.51"/><path d="M691,175L719,126L635,139Z" fill="rgb(134,153,196)" stroke="rgb(134,153,196)" stroke-width="1.51"/><path d="M-62,71L-98,134L-25,137Z" fill="rgb(114,168,219)" stroke="rgb(114,168,219)" stroke-width="1.51"/><path d="M490,-78L548,-108L436,-84Z" fill="rgb(93,141,197)" stroke="rgb(93,141,197)" stroke-width="1.51"/><path d="M590,-29L548,-108L490,-78Z" fill="rgb(73,127,187)" stroke="rgb(73,127,187)" stroke-width="1.51"/><path d="M633,-100L548,-108L590,-29Z" fill="rgb(52,115,179)" stroke="rgb(52,115,179)" stroke-width="1.51"/><path d="M709,374L719,405L719,126Z" fill="rgb(111,126,177)" stroke="rgb(111,126,177)" stroke-width="1.51"/><path d="M622,478L719,405L617,419Z" fill="rgb(59,89,152)" stroke="rgb(59,89,152)" stroke-width="1.51"/><path d="M-140,340L-92,436L-34,360Z" fill="rgb(62,121,183)" stroke="rgb(62,121,183)" stroke-width="1.51"/><path d="M733,52L663,-23L622,66Z" fill="rgb(71,121,182)" stroke="rgb(71,121,182)" stroke-width="1.51"/><path d="M11,-3L-58,-5L-62,71Z" fill="rgb(44,142,207)" stroke="rgb(44,142,207)" stroke-width="1.51"/><path d="M-62,71L-119,50L-98,134Z" fill="rgb(97,160,215)" stroke="rgb(97,160,215)" stroke-width="1.51"/><path d="M50,-120L11,-3L87,-51Z" fill="rgb(57,145,209)" stroke="rgb(57,145,209)" stroke-width="1.51"/><path d="M119,-97L50,-120L87,-51Z" fill="rgb(77,152,212)" stroke="rgb(77,152,212)" stroke-width="1.51"/><path d="M277,-107L50,-120L119,-97Z" fill="rgb(105,164,217)" stroke="rgb(105,164,217)" stroke-width="1.51"/><path d="M738,-121L50,-120L277,-107Z" fill="rgb(142,178,220)" stroke="rgb(142,178,220)" stroke-width="1.51"/><path d="M622,478L693,512L719,405Z" fill="rgb(59,89,152)" stroke="rgb(59,89,152)" stroke-width="1.51"/><path d="M407,500L693,512L552,478Z" fill="rgb(78,101,160)" stroke="rgb(78,101,160)" stroke-width="1.51"/><path d="M160,512L693,512L407,500Z" fill="rgb(121,135,182)" stroke="rgb(121,135,182)" stroke-width="1.51"/><path d="M-98,299L-140,340L-34,360Z" fill="rgb(91,139,195)" stroke="rgb(91,139,195)" stroke-width="1.51"/><path d="M-99,182L-140,340L-98,299Z" fill="rgb(122,163,211)" stroke="rgb(122,163,211)" stroke-width="1.51"/><path d="M-119,50L-140,340L-99,182Z" fill="rgb(155,191,229)" stroke="rgb(155,191,229)" stroke-width="1.51"/><path d="M719,126L733,52L622,66Z" fill="rgb(101,134,188)" stroke="rgb(101,134,188)" stroke-width="1.51"/><path d="M719,405L733,52L719,126Z" fill="rgb(157,166,203)" stroke="rgb(157,166,203)" stroke-width="1.51"/><path d="M717,-36L633,-100L663,-23Z" fill="rgb(46,112,178)" stroke="rgb(46,112,178)" stroke-width="1.51"/><path d="M663,-23L633,-100L590,-29Z" fill="rgb(46,112,178)" stroke="rgb(46,112,178)" stroke-width="1.51"/><path d="M-98,134L-119,50L-99,182Z" fill="rgb(119,171,220)" stroke="rgb(119,171,220)" stroke-width="1.51"/><path d="M-58,-5L-119,50L-62,71Z" fill="rgb(62,147,209)" stroke="rgb(62,147,209)" stroke-width="1.51"/><path d="M-105,-51L-119,50L-58,-5Z" fill="rgb(0,136,204)" stroke="rgb(0,136,204)" stroke-width="1.51"/><path d="M50,-120L-42,-85L11,-3Z" fill="rgb(15,137,205)" stroke="rgb(15,137,205)" stroke-width="1.51"/><path d="M733,52L717,-36L663,-23Z" fill="rgb(46,112,178)" stroke="rgb(46,112,178)" stroke-width="1.51"/><path d="M160,512L-108,527L693,512Z" fill="rgb(143,158,199)" stroke="rgb(143,158,199)" stroke-width="1.51"/><path d="M-27,501L-108,527L160,512Z" fill="rgb(51,114,178)" stroke="rgb(51,114,178)" stroke-width="1.51"/><path d="M-92,436L-108,527L-27,501Z" fill="rgb(46,112,178)" stroke="rgb(46,112,178)" stroke-width="1.51"/><path d="M-140,340L-108,527L-92,436Z" fill="rgb(46,112,178)" stroke="rgb(46,112,178)" stroke-width="1.51"/><path d="M-42,-85L-105,-51L-58,-5Z" fill="rgb(0,136,204)" stroke="rgb(0,136,204)" stroke-width="1.51"/><path d="M-42,-85L-101,-108L-105,-51Z" fill="rgb(0,136,204)" stroke="rgb(0,136,204)" stroke-width="1.51"/><path d="M-105,-51L-101,-108L-119,50Z" fill="rgb(0,136,204)" stroke="rgb(0,136,204)" stroke-width="1.51"/><path d="M50,-120L-101,-108L-42,-85Z" fill="rgb(0,136,204)" stroke="rgb(0,136,204)" stroke-width="1.51"/><path d="M733,52L738,-121L717,-36Z" fill="rgb(46,112,178)" stroke="rgb(46,112,178)" stroke-width="1.51"/><path d="M717,-36L738,-121L633,-100Z" fill="rgb(46,112,178)" stroke="rgb(46,112,178)" stroke-width="1.51"/><path d="M633,-100L738,-121L548,-108Z" fill="rgb(46,112,178)" stroke="rgb(46,112,178)" stroke-width="1.51"/><path d="M548,-108L738,-121L277,-107Z" fill="rgb(82,133,191)" stroke="rgb(82,133,191)" stroke-width="1.51"/></svg>